# xmcd
#
# Track frame offsets: 
#        150
#        7090
#        31239
#        48806
#        51183
#        69306
#        91705
#        110077
#        130664
#        146548
#        149797
#        165816
#        181354
#
# Disc length: 2473 seconds
#
# Revision: 1
# Processed by: cddbd v1.5.2PL0 Copyright (c) Steve Scherf et al.
# Submitted via: ExactAudioCopyFreeDBPlugin 1.0
#
DISCID=ab09a70d
DTITLE=Mtume - Kiss This World Goodbye
DYEAR=1978
DGENRE=Funk
TTITLE0=Theme (For The People) (Opening)
TTITLE1=Just Funnin'
TTITLE2=Kiss This World Goodbye
TTITLE3=Insert
TTITLE4=The Closer I Get To You
TTITLE5=Love Lock
TTITLE6=Funky Constellation
TTITLE7=Closer To The End
TTITLE8=Metal Flake Mind
TTITLE9=Phase I
TTITLE10=Day Of The Reggin
TTITLE11=This Is Your World
TTITLE12=Theme (For The People) (Exit)
EXTD=
EXTT0=
EXTT1=
EXTT2=
EXTT3=
EXTT4=
EXTT5=
EXTT6=
EXTT7=
EXTT8=
EXTT9=
EXTT10=
EXTT11=
EXTT12=
PLAYORDER=
